<svg width="352" height="292" version="1.1" viewBox="0 0 352 292" aria-label="42" xmlns="http://www.w3.org/2000/svg"><g transform="translate(-249,-36.6)"><g transform="rotate(-18.9,401,188)" fill="#f5f5dc" stroke-width="5" aria-label="42"><g fill="#f5f5dc"><path d="m416 262h-27v46h-63v-46h-87l-6-45 78-145h78v139h29zm-89-51v-58h-2l-31 58z" color="#000000" style="-inkscape-stroke:none"/><path d="m311 69.5a2.5 2.5 0 0 0-2 1.3l-78 145.2a2.5 2.5 0 0 0 0 1l6 45a2.5 2.5 0 0 0 2 3h85v43a2.5 2.5 0 0 0 2 3h63a2.5 2.5 0 0 0 3-3v-43h24a2.5 2.5 0 0 0 2-3l2-51a2.5 2.5 0 0 0-2-2h-26v-137a2.5 2.5 0 0 0-3-2.5zm1 5h75v136.5a2.5 2.5 0 0 0 2 3h26l-1 46h-25a2.5 2.5 0 0 0-2 2v44h-58v-44a2.5 2.5 0 0 0-3-2h-85l-5-43zm13 76.5a2.5 2.5 0 0 0-2 1l-31 58a2.5 2.5 0 0 0 2 4h33a2.5 2.5 0 0 0 3-3v-58a2.5 2.5 0 0 0-3-2zm0 8v50h-27z" color="#000000" style="-inkscape-stroke:none"/><path d="m419 88q37-19.8 73-19.8 37 0 56 18.6 19 18.2 19 53.2 0 33-12 55t-44 59h57v54h-140l-3-39q37-38 52-58t20-33q6-12 6-24 0-11-6-17-5-6-14-6t-17 2q-11 3-35 14z"/><path d="m492 65.7c-24 0-49 6.7-74 20.1a2.5 2.5 0 0 0-1 2.7l12 58.5a2.5 2.5 0 0 0 3 2c16-7 28-12 35-14 5-1 10-1 16-1 5 0 9 1 12 5 4 3 6 8 6 15 0 8-2 15-6 23s-10 19-20 33c-10 13-27 32-52 57a2.5 2.5 0 0 0 0 2l3 39a2.5 2.5 0 0 0 2 3h140a2.5 2.5 0 0 0 3-3v-54a2.5 2.5 0 0 0-3-2h-52c20-23 34-42 41-56 8-15 13-34 13-56 0-24-7-42.3-20-55-14-13-33-19.3-58-19.3zm0 5c24 0 42 6.1 54 17.9 12 11.4 19 28.4 19 51.4 0 22-4 40-12 54s-23 34-44 58a2.69 2.69 0 0 0 2 5h55v49h-136l-2-36c24-25 41-44 51-57 10-14 17-25 20-34 4-8 7-17 7-25s-3-14-7-19c-4-4-9-6-16-6-6 0-12 0-18 2-7 2-18 6-32 12l-11-53.6c24-12.5 47-18.7 70-18.7z"/></g></g></g></svg>
